# xmcd
# 
# Track frame offsets:
#     150
#     12982
#     32410
#     48917
#     69922
#     82790
#     97629
#     115617
#     134682
#     149350
#     162882
#     174302
#     188272
#     203187
#     225820
# 
# Disc length: 3203
# 
# Revision: 3
# Processed by: cddbd v1.5.2PL0 Copyright (c) Steve Scherf et al.
# Submitted via: BonkEnc v1.0.15
# 
DISCID=a40c810f
DTITLE=Rio Negro e Solimões - Sem Limite - CD 2
DYEAR=0
DGENRE=Country
TTITLE0=Bate O Pé
TTITLE1=Frio Da Madrugada
TTITLE2=Casa Cheia
TTITLE3=Só Lembrança
TTITLE4=Tô Doidão
TTITLE5=Eu Menti
TTITLE6=Pororoca
TTITLE7=Laço De Paixão
TTITLE8=Trem Bão
TTITLE9=Tudo Acabou
TTITLE10=Rei Da Festa
TTITLE11=Deixe A Poeira Subir
TTITLE12=Na Virada De 2000
TTITLE13=Tocando Em Frente
TTITLE14=De São Paulo A Belém
EXTD=
EXTT0=
EXTT1=
EXTT2=
EXTT3=
EXTT4=
EXTT5=
EXTT6=
EXTT7=
EXTT8=
EXTT9=
EXTT10=
EXTT11=
EXTT12=
EXTT13=
EXTT14=
PLAYORDER=
